<svg width="20" height="20" viewBox="0 0 20 20" fill="none" xmlns="http://www.w3.org/2000/svg">
<g clip-path="url(#clip0_1_200)">
<path d="M19.9905 10.1871C19.9905 9.36775 19.9224 8.76981 19.7752 8.14973H10.1992V11.8481H15.8201C15.7068 12.7671 15.0949 14.1513 13.7349 15.0813L13.7159 15.2052L16.7436 17.497L16.9534 17.5174C18.8799 15.779 19.9905 13.2211 19.9905 10.1871Z" fill="#2B1A64"/>
<path d="M10.1992 19.9313C12.953 19.9313 15.2648 19.0454 16.9534 17.5174L13.7349 15.0813C12.8737 15.6682 11.7177 16.0779 10.1992 16.0779C7.50212 16.0779 5.21298 14.3395 4.39697 11.9366L4.27736 11.9466L1.12908 14.3273L1.08791 14.4391C2.76509 17.6945 6.21017 19.9313 10.1992 19.9313Z" fill="#34A853"/>
<path d="M4.39695 11.9367C4.18164 11.3166 4.05703 10.6522 4.05703 9.96567C4.05703 9.2791 4.18164 8.61475 4.38562 7.99467L4.37992 7.86261L1.19219 5.44368L1.08789 5.49215C0.396641 6.84307 0 8.36009 0 9.96567C0 11.5712 0.396641 13.0882 1.08789 14.4391L4.39695 11.9367Z" fill="#FBBC05"/>
<path d="M10.1992 3.85336C12.1144 3.85336 13.4063 4.66168 14.1429 5.33718L17.0213 2.59107C15.2535 0.985496 12.953 0 10.1992 0C6.21017 0 2.76509 2.23672 1.08791 5.49214L4.38564 7.99466C5.21298 5.59183 7.50212 3.85336 10.1992 3.85336Z" fill="#EB4335"/>
</g>
<defs>
<clipPath id="clip0_1_200">
<rect width="20" height="20" fill="white"/>
</clipPath>
</defs>
</svg>
